# xmcd
#
# Track frame offsets:
#	150
#	17096
#	31939
#	49476
#	64469
#	76468
#	94725
#	112520
#	132300
#	149621
#	162670
#	180727
#	203776
#	222002
#	239399
#	259894
#	281036
#	304103
#
# Disc length: 4301 seconds
#
# Revision: 4
# Processed by: cddbd v1.5.2PL0 Copyright (c) Steve Scherf et al.
# Submitted via: EZCDAudioConverter 8.2.2.1
#
DISCID=0d10cb12
DTITLE=Alan Jackson - The Essential Alan Jackson
DYEAR=2012
DGENRE=Country
TTITLE0=As She's Walking Away (Zac Brown Band featuring Alan Jackson)
TTITLE1=Look At Me
TTITLE2=I'll Try
TTITLE3=Home
TTITLE4=Little Bitty
TTITLE5=Who's Cheatin' Who
TTITLE6=There Goes
TTITLE7=Between The Devil And Me
TTITLE8=Right On The Money
TTITLE9=It Must Be Love
TTITLE10=Where I Come From
TTITLE11=Where Were You (When The World Stopped Turning)
TTITLE12=Drive (For Daddy Gene)
TTITLE13=It's Five O'Clock Somewhere (Alan Jackson and Jimmy Buffett)
TTITLE14=Remember When
TTITLE15=Small Town Southern Man
TTITLE16=Good Time
TTITLE17=Country Boy
EXTD=
EXTT0=
EXTT1=
EXTT2=
EXTT3=
EXTT4=
EXTT5=
EXTT6=
EXTT7=
EXTT8=
EXTT9=
EXTT10=
EXTT11=
EXTT12=
EXTT13=
EXTT14=
EXTT15=
EXTT16=
EXTT17=
PLAYORDER=
